<svg viewBox="0 0 96 96" xmlns="http://www.w3.org/2000/svg" xmlns:xlink="http://www.w3.org/1999/xlink" id="Icons_Cow" overflow="hidden"><g><path d="M20.2 75.1C20.2 76.8 21.5 78.1 23.2 78.1 24.9 78.1 26.2 76.8 26.2 75.1L26.2 66.1 20.2 66.1 20.2 75.1Z" fill="#7030A0"/><path d="M91.2 38.8 81.7 27.7C84.3 27 86.2 24.7 86.2 21.9L86.2 19.9C86.2 18.8 85.3 17.9 84.2 17.9 83.1 17.9 82.2 18.8 82.2 19.9L82.2 21.9C82.2 23 81.3 23.9 80.2 23.9L74.2 23.9C73.1 23.9 72.2 23 72.2 21.9L72.2 19.9C72.2 18.8 71.3 17.9 70.2 17.9 69.1 17.9 68.2 18.8 68.2 19.9L68.2 21.9C68.2 23.4 68.8 24.8 69.7 25.9L61.2 25.9 14.2 25.9C12 25.9 10.2 27.7 10.2 29.9 6.9 29.9 4.2 32.6 4.2 35.9L4.2 57.9C4.2 59 5.1 59.9 6.2 59.9 7.3 59.9 8.2 59 8.2 57.9L8.2 36C8.2 34.9 9.1 34 10.2 34L10.2 60 10.2 75C10.2 76.7 11.5 78 13.2 78 14.9 78 16.2 76.7 16.2 75L16.2 64 26.2 64C28.4 64 30.2 62.2 30.2 60L50.2 60 50.2 75C50.2 76.7 51.5 78 53.2 78 54.9 78 56.2 76.7 56.2 75L56.2 60 60.2 60 60.2 75C60.2 76.7 61.5 78 63.2 78 64.9 78 66.2 76.7 66.2 75L66.2 59.8C69.6 58.9 72.2 55.8 72.2 52.1 72.2 48.5 75.1 43.1 79.2 43.1 81.9 43.1 84.9 44.4 86.6 45.3 87.5 45.8 88.6 45.5 89.2 44.6L91.3 41.4C91.9 40.5 91.8 39.5 91.2 38.8Z" fill="#7030A0"/></g></svg>