<svg viewBox="0 0 96 96" xmlns="http://www.w3.org/2000/svg" xmlns:xlink="http://www.w3.org/1999/xlink" id="Icons_Diploma" overflow="hidden"><rect x="20" y="52" width="28" height="4" stroke="none" stroke-width="1" stroke-linecap="butt" fill="#00B050" fill-opacity="1"/><rect x="20" y="60" width="28" height="4" stroke="none" stroke-width="1" stroke-linecap="butt" fill="#00B050" fill-opacity="1"/><path d="M24.4 42.3C24.5 42.3 35.1 38.5 48 38.5 60.9 38.5 71.5 42.3 71.6 42.3 72 42.4 72.3 42.5 72.7 42.5 74.1 42.5 75.4 41.6 75.8 40.1 76.4 38.3 75.5 36.3 73.7 35.7 73.3 35.5 62 31.5 48 31.5 34 31.5 22.7 35.5 22.2 35.7 20.5 36.3 19.5 38.3 20.1 40.1 20.8 42 22.7 42.9 24.4 42.3" stroke="none" stroke-width="1" stroke-linecap="butt" fill="#00B050" fill-opacity="1"/><path d="M8 76 88 76 88 20 8 20 8 76ZM82 70 14 70 14 26 82 26 82 70Z" stroke="none" stroke-width="1" stroke-linecap="butt" fill="#00B050" fill-opacity="1"/><path d="M73.5 55.3 73.9 52.6 71.3 53.1 70.3 50.5 68.3 52.3 66.2 50.5 65.3 53.1 62.6 52.6 63.1 55.3 60.5 56.2 62.3 58.3 60.5 60.3 63.1 61.3 62.6 63.9 65.3 63.5 66.2 66 68.3 64.3 70.3 66 71.3 63.5 73.9 63.9 73.5 61.3 76 60.3 74.3 58.3 76 56.2Z" stroke="none" stroke-width="1" stroke-linecap="butt" fill="#00B050" fill-opacity="1"/></svg>