<svg viewBox="0 0 96 96" xmlns="http://www.w3.org/2000/svg" xmlns:xlink="http://www.w3.org/1999/xlink" id="Icons_Label" overflow="hidden"><path d="M50.4 69.4 47.6 66.6 66.6 47.6 69.4 50.4 50.4 69.4ZM40.6 59.6 59.6 40.6 62.4 43.4 43.4 62.4 40.6 59.6ZM33.6 52.6 52.6 33.6 55.4 36.4 36.4 55.4 33.6 52.6ZM28 32C25.8 32 24 30.2 24 28 24 25.8 25.8 24 28 24 30.2 24 32 25.8 32 28 32 30.2 30.2 32 28 32ZM77.2 49.2 49.2 21.2C48.4 20.4 47.4 20 46.4 20L28 20C23.6 20 20 23.6 20 28L20 46.3C20 47.4 20.4 48.4 21.2 49.1L49.2 77.1C50.8 78.7 53.3 78.7 54.9 77.1L77.2 54.8C78.7 53.3 78.7 50.7 77.2 49.2Z" stroke="none" stroke-width="1" stroke-linecap="butt" fill="#00B0F0" fill-opacity="1"/></svg>