<svg viewBox="0 0 96 96" xmlns="http://www.w3.org/2000/svg" xmlns:xlink="http://www.w3.org/1999/xlink" id="Icons_Mailbox" overflow="hidden"><g><path d="M62 20 68 20 68 14 56 14 56 38 62 38Z" stroke="none" stroke-width="1" stroke-linecap="butt" fill="#2E75B6" fill-opacity="1"/><path d="M40 66 16 66 16 42C16 35.4 21.4 30 28 30 34.6 30 40 35.4 40 42L40 66ZM68 24 66 24 66 42 52 42 52 24 28 24C18.1 24 10 32.1 10 42L10 72 44 72 44 82 52 82 52 72 86 72 86 42C86 32.1 77.9 24 68 24Z" stroke="none" stroke-width="1" stroke-linecap="butt" fill="#2E75B6" fill-opacity="1"/></g></svg>