<svg viewBox="0 0 96 96" xmlns="http://www.w3.org/2000/svg" xmlns:xlink="http://www.w3.org/1999/xlink" id="Icons_Calculator" overflow="hidden"><path d="M66 34 30 34 30 18 66 18 66 34ZM66 48 60 48 60 42 66 42 66 48ZM66 58 60 58 60 52 66 52 66 58ZM66 68 60 68 60 62 66 62 66 68ZM66 78 60 78 60 72 66 72 66 78ZM56 48 50 48 50 42 56 42 56 48ZM56 58 50 58 50 52 56 52 56 58ZM56 68 50 68 50 62 56 62 56 68ZM56 78 50 78 50 72 56 72 56 78ZM46 48 40 48 40 42 46 42 46 48ZM46 58 40 58 40 52 46 52 46 58ZM46 68 40 68 40 62 46 62 46 68ZM46 78 30 78 30 72 46 72 46 78ZM30 62 36 62 36 68 30 68 30 62ZM30 52 36 52 36 58 30 58 30 52ZM30 42 36 42 36 48 30 48 30 42ZM72 8 24 8C21.8 8 20 9.8 20 12L20 84C20 86.2 21.8 88 24 88L72 88C74.2 88 76 86.2 76 84L76 12C76 9.8 74.2 8 72 8Z" fill="#00B0F0"/></svg>