<svg viewBox="0 0 96 96" xmlns="http://www.w3.org/2000/svg" xmlns:xlink="http://www.w3.org/1999/xlink" id="Icons_ForestScene" overflow="hidden"><path d="M77.94 74.61 77.94 66.61 89.69 67.61 81.85 55.55 86.65 56.84 81 48.22 84.49 48.66 76.19 36.59 71.93 42.81 63.45 29.81 68.87 30.49 56 11.48 43.13 30.48 48.55 29.8 39.74 43.32 47.19 41.32 35 60.26 53 56.87 53 69.18C47.08 69.31 41.56 70.6 37.25 73.36 41.25 75.44 45.48 79.01 49.34 85L92 85C88.78 80.91 83.77 77.33 77.94 74.61ZM71.68 43.17 68.76 47.44 64.76 41.29ZM68.46 58.74 62.69 67.61 74 66.61 74 73C68.8598 71.0571 63.4753 69.8355 58 69.37L58 56.87Z" stroke="none" stroke-width="1" stroke-linecap="butt" fill="#92D050" fill-opacity="1"/><path d="M32.19 74.46 32 74.46 32 71 37 72 33.34 65.26 36 66 32.85 61.21 34.79 61.45 30 55 25.6 61.43 27.53 61.19 25.83 63.78 22.08 57.78 26.2 58.89 21.33 51.48 24.33 51.85 17.21 41.46 10.09 51.83 13.09 51.46 8.22 58.87 12.34 57.76 5.6 68.14 15 67 15 77C10.8343 78.9026 7.09352 81.6231 4 85L45.72 85C41.19 78.65 36.29 75.73 32.19 74.46ZM18 75.83 18 67 25.85 67.9 24 72 29 71 29 74.21C25.2671 74.1066 21.5447 74.6549 18 75.83Z" stroke="none" stroke-width="1" stroke-linecap="butt" fill="#92D050" fill-opacity="1"/></svg>